<mxfile host="app.diagrams.net" agent="Mozilla/5.0 (Macintosh; Intel Mac OS X 10_15_7) AppleWebKit/537.36 (KHTML, like Gecko) Chrome/131.0.0.0 Safari/537.36" version="26.0.6">
  <diagram name="Seite-1" id="cydz456f18RTVPwNGF3f">
    <mxGraphModel dx="1224" dy="761" grid="1" gridSize="10" guides="1" tooltips="1" connect="1" arrows="1" fold="1" page="1" pageScale="1" pageWidth="827" pageHeight="1169" math="0" shadow="0">
      <root>
        <mxCell id="0" />
        <mxCell id="1" parent="0" />
        <mxCell id="VpXw9347kigrGODbRS2Y-4" style="rounded=0;orthogonalLoop=1;jettySize=auto;html=1;entryX=0;entryY=0;entryDx=114.5;entryDy=420;entryPerimeter=0;endArrow=none;endFill=0;" edge="1" parent="1" target="VpXw9347kigrGODbRS2Y-23">
          <mxGeometry relative="1" as="geometry">
            <mxPoint x="290" y="263" as="sourcePoint" />
            <mxPoint x="450" y="200" as="targetPoint" />
          </mxGeometry>
        </mxCell>
        <mxCell id="VpXw9347kigrGODbRS2Y-5" value="&lt;span style=&quot;font-size: 12px; text-wrap: wrap; background-color: rgb(251, 251, 251);&quot;&gt;«&lt;/span&gt;protocol&lt;span style=&quot;font-size: 12px; text-wrap: wrap; background-color: rgb(251, 251, 251);&quot;&gt;»&lt;/span&gt;&lt;br&gt;ssh" style="edgeLabel;html=1;align=center;verticalAlign=middle;resizable=0;points=[];" vertex="1" connectable="0" parent="VpXw9347kigrGODbRS2Y-4">
          <mxGeometry x="0.1343" relative="1" as="geometry">
            <mxPoint x="-7" y="-20" as="offset" />
          </mxGeometry>
        </mxCell>
        <mxCell id="VpXw9347kigrGODbRS2Y-6" value="«device»&amp;nbsp;&lt;b&gt;Ansible Client&lt;/b&gt;" style="verticalAlign=top;align=center;shape=cube;size=10;direction=south;html=1;boundedLbl=1;spacingLeft=5;whiteSpace=wrap;" vertex="1" parent="1">
          <mxGeometry x="100" y="166" width="190" height="200" as="geometry" />
        </mxCell>
        <mxCell id="VpXw9347kigrGODbRS2Y-7" value="«component»&lt;br&gt;&lt;b&gt;Playbooks&lt;/b&gt;" style="html=1;dropTarget=0;whiteSpace=wrap;" vertex="1" parent="1">
          <mxGeometry x="120" y="210" width="130" height="60" as="geometry" />
        </mxCell>
        <mxCell id="VpXw9347kigrGODbRS2Y-8" value="" style="shape=module;jettyWidth=8;jettyHeight=4;" vertex="1" parent="VpXw9347kigrGODbRS2Y-7">
          <mxGeometry x="1" width="20" height="20" relative="1" as="geometry">
            <mxPoint x="-27" y="7" as="offset" />
          </mxGeometry>
        </mxCell>
        <mxCell id="VpXw9347kigrGODbRS2Y-9" value="" style="group" vertex="1" connectable="0" parent="1">
          <mxGeometry x="130" y="280" width="110" height="70" as="geometry" />
        </mxCell>
        <mxCell id="VpXw9347kigrGODbRS2Y-10" value="«artefact»&lt;br&gt;&lt;b&gt;Ansible&lt;/b&gt;" style="html=1;dropTarget=0;whiteSpace=wrap;" vertex="1" parent="VpXw9347kigrGODbRS2Y-9">
          <mxGeometry width="110" height="70" as="geometry" />
        </mxCell>
        <mxCell id="VpXw9347kigrGODbRS2Y-11" value="" style="shape=note2;boundedLbl=1;whiteSpace=wrap;html=1;size=6;verticalAlign=top;align=left;spacingLeft=5;" vertex="1" parent="VpXw9347kigrGODbRS2Y-9">
          <mxGeometry x="88.84615384615384" y="8.75" width="12.692307692307692" height="17.5" as="geometry" />
        </mxCell>
        <mxCell id="VpXw9347kigrGODbRS2Y-12" value="Verteilungsdiagramm: Ansible Rook" style="shape=umlFrame;whiteSpace=wrap;html=1;pointerEvents=0;width=250;height=30;" vertex="1" parent="1">
          <mxGeometry x="80" y="126" width="730" height="260" as="geometry" />
        </mxCell>
        <mxCell id="VpXw9347kigrGODbRS2Y-23" value="«device»&amp;nbsp;&lt;b&gt;artpc17 (master)&lt;/b&gt;" style="verticalAlign=top;align=center;shape=cube;size=10;direction=south;html=1;boundedLbl=1;spacingLeft=5;whiteSpace=wrap;" vertex="1" parent="1">
          <mxGeometry x="370" y="148" width="420" height="219" as="geometry" />
        </mxCell>
        <mxCell id="VpXw9347kigrGODbRS2Y-26" value="«NetworkPolicy»&lt;br&gt;&lt;b&gt;allow-rook&lt;/b&gt;" style="html=1;dropTarget=0;whiteSpace=wrap;" vertex="1" parent="1">
          <mxGeometry x="600" y="190" width="170" height="65" as="geometry" />
        </mxCell>
        <mxCell id="VpXw9347kigrGODbRS2Y-27" value="" style="shape=module;jettyWidth=8;jettyHeight=4;" vertex="1" parent="VpXw9347kigrGODbRS2Y-26">
          <mxGeometry x="1" width="20" height="20" relative="1" as="geometry">
            <mxPoint x="-27" y="7" as="offset" />
          </mxGeometry>
        </mxCell>
        <mxCell id="VpXw9347kigrGODbRS2Y-30" style="rounded=0;orthogonalLoop=1;jettySize=auto;html=1;exitX=0;exitY=0.5;exitDx=0;exitDy=0;entryX=1;entryY=0.5;entryDx=0;entryDy=0;dashed=1;endArrow=open;endFill=0;strokeWidth=1;endSize=9;startSize=6;" edge="1" parent="1" source="VpXw9347kigrGODbRS2Y-26" target="VpXw9347kigrGODbRS2Y-24">
          <mxGeometry relative="1" as="geometry">
            <mxPoint x="546" y="351" as="sourcePoint" />
            <mxPoint x="480" y="351" as="targetPoint" />
            <Array as="points" />
          </mxGeometry>
        </mxCell>
        <mxCell id="VpXw9347kigrGODbRS2Y-33" value="" style="group" vertex="1" connectable="0" parent="1">
          <mxGeometry x="380" y="190" width="170.00000000000006" height="65" as="geometry" />
        </mxCell>
        <mxCell id="VpXw9347kigrGODbRS2Y-24" value="«Helm Chart»&lt;br&gt;&lt;b&gt;rook-ceph&lt;/b&gt;" style="html=1;dropTarget=0;whiteSpace=wrap;" vertex="1" parent="VpXw9347kigrGODbRS2Y-33">
          <mxGeometry width="170" height="65" as="geometry" />
        </mxCell>
        <mxCell id="VpXw9347kigrGODbRS2Y-29" value="" style="shape=note2;boundedLbl=1;whiteSpace=wrap;html=1;size=6;verticalAlign=top;align=left;spacingLeft=5;" vertex="1" parent="VpXw9347kigrGODbRS2Y-33">
          <mxGeometry x="149.3061538461538" y="5" width="12.692307692307692" height="17.5" as="geometry" />
        </mxCell>
        <mxCell id="VpXw9347kigrGODbRS2Y-34" value="" style="group" vertex="1" connectable="0" parent="1">
          <mxGeometry x="380" y="290" width="170.00000000000006" height="65" as="geometry" />
        </mxCell>
        <mxCell id="VpXw9347kigrGODbRS2Y-35" value="«Helm Chart»&lt;br&gt;&lt;b&gt;rook-operator&lt;/b&gt;" style="html=1;dropTarget=0;whiteSpace=wrap;" vertex="1" parent="VpXw9347kigrGODbRS2Y-34">
          <mxGeometry width="170" height="65" as="geometry" />
        </mxCell>
        <mxCell id="VpXw9347kigrGODbRS2Y-36" value="" style="shape=note2;boundedLbl=1;whiteSpace=wrap;html=1;size=6;verticalAlign=top;align=left;spacingLeft=5;" vertex="1" parent="VpXw9347kigrGODbRS2Y-34">
          <mxGeometry x="149.3061538461538" y="5" width="12.692307692307692" height="17.5" as="geometry" />
        </mxCell>
        <mxCell id="VpXw9347kigrGODbRS2Y-38" style="rounded=0;orthogonalLoop=1;jettySize=auto;html=1;exitX=0.5;exitY=0;exitDx=0;exitDy=0;entryX=0.5;entryY=1;entryDx=0;entryDy=0;dashed=1;endArrow=open;endFill=0;strokeWidth=1;endSize=9;startSize=6;" edge="1" parent="1" source="VpXw9347kigrGODbRS2Y-35" target="VpXw9347kigrGODbRS2Y-24">
          <mxGeometry relative="1" as="geometry">
            <mxPoint x="610" y="233" as="sourcePoint" />
            <mxPoint x="560" y="233" as="targetPoint" />
            <Array as="points" />
          </mxGeometry>
        </mxCell>
        <mxCell id="VpXw9347kigrGODbRS2Y-39" value="«StorageClass»&lt;br&gt;&lt;b&gt;ceph-filesystem&lt;/b&gt;" style="html=1;dropTarget=0;whiteSpace=wrap;" vertex="1" parent="1">
          <mxGeometry x="600" y="290" width="170" height="65" as="geometry" />
        </mxCell>
        <mxCell id="VpXw9347kigrGODbRS2Y-40" value="" style="shape=module;jettyWidth=8;jettyHeight=4;" vertex="1" parent="VpXw9347kigrGODbRS2Y-39">
          <mxGeometry x="1" width="20" height="20" relative="1" as="geometry">
            <mxPoint x="-27" y="7" as="offset" />
          </mxGeometry>
        </mxCell>
        <mxCell id="VpXw9347kigrGODbRS2Y-41" style="rounded=0;orthogonalLoop=1;jettySize=auto;html=1;exitX=0;exitY=0.5;exitDx=0;exitDy=0;entryX=1;entryY=0.5;entryDx=0;entryDy=0;dashed=1;endArrow=open;endFill=0;strokeWidth=1;endSize=9;startSize=6;" edge="1" parent="1" source="VpXw9347kigrGODbRS2Y-39" target="VpXw9347kigrGODbRS2Y-35">
          <mxGeometry relative="1" as="geometry">
            <mxPoint x="475" y="300" as="sourcePoint" />
            <mxPoint x="475" y="265" as="targetPoint" />
            <Array as="points" />
          </mxGeometry>
        </mxCell>
        <mxCell id="VpXw9347kigrGODbRS2Y-42" style="rounded=0;orthogonalLoop=1;jettySize=auto;html=1;dashed=1;endArrow=open;endFill=0;strokeWidth=1;endSize=9;startSize=6;entryX=0.75;entryY=1;entryDx=0;entryDy=0;" edge="1" parent="1" target="VpXw9347kigrGODbRS2Y-24">
          <mxGeometry relative="1" as="geometry">
            <mxPoint x="600" y="320" as="sourcePoint" />
            <mxPoint x="540" y="260" as="targetPoint" />
            <Array as="points" />
          </mxGeometry>
        </mxCell>
      </root>
    </mxGraphModel>
  </diagram>
</mxfile>
